<svg width="417" height="655" viewBox="0 0 417 655" fill="none" xmlns="http://www.w3.org/2000/svg">
<g filter="url(#filter0_d_4_43)">
<path d="M149.364 631.623C146.595 612.387 150.617 560.841 170.884 552.269C185.145 546.257 239.107 559.272 263.084 556.867C306.807 552.478 289.936 530.259 302.001 498.737C304.3 492.778 311.717 488.127 311.717 483.317C311.771 476.103 300.801 474.116 302.209 466.116L321.172 458.067C322.898 447.454 305.292 442.176 309.733 425.133C312.24 415.567 323.263 417.292 329.427 411.856C353.769 390.212 309.68 363.971 299.598 348.131C279.174 316.138 299.129 274.63 280.324 240.599C300.486 239.501 307.173 261.405 305.396 278.133C310.098 279.022 309.68 269.089 309.733 266.005C309.941 253.772 307.799 238.926 298.868 229.83C291.501 222.302 277.867 220.577 272.592 215.402C255.771 199.144 260.211 175.306 225.161 159.519C201.288 148.75 199.197 156.33 178.773 156.069C139.021 155.598 100.365 113.098 57.3717 124.128L30 107.504C79.7832 57.7375 140.378 19.21 210.847 6.6115C449.782 -36.2024 648.128 172.536 591.139 409.138C545.012 600.73 331.099 707.004 149.31 631.572L149.364 631.623ZM137.034 375.261C137.034 401.034 116.14 421.943 90.3874 421.943C64.6344 421.943 43.7378 401.034 43.7378 375.261C43.7378 349.488 64.6344 328.579 90.3874 328.579C116.14 328.579 137.034 349.488 137.034 375.261Z" fill="#E3F1EF"/>
</g>
<defs>
<filter id="filter0_d_4_43" x="0" y="-25" width="631" height="715" filterUnits="userSpaceOnUse" color-interpolation-filters="sRGB">
<feFlood flood-opacity="0" result="BackgroundImageFix"/>
<feColorMatrix in="SourceAlpha" type="matrix" values="0 0 0 0 0 0 0 0 0 0 0 0 0 0 0 0 0 0 127 0" result="hardAlpha"/>
<feOffset dy="4"/>
<feGaussianBlur stdDeviation="15"/>
<feComposite in2="hardAlpha" operator="out"/>
<feColorMatrix type="matrix" values="0 0 0 0 1 0 0 0 0 0.998118 0 0 0 0 0.989733 0 0 0 0.25 0"/>
<feBlend mode="normal" in2="BackgroundImageFix" result="effect1_dropShadow_4_43"/>
<feBlend mode="normal" in="SourceGraphic" in2="effect1_dropShadow_4_43" result="shape"/>
</filter>
</defs>
</svg>
